<?xml version="1.0" ?><svg style="enable-background:new 0 0 512 512;" version="1.1" viewBox="0 0 512 512" xml:space="preserve" xmlns="http://www.w3.org/2000/svg" xmlns:xlink="http://www.w3.org/1999/xlink"><style type="text/css">
	.st0{fill:#333333;}
</style><g id="Layer_1"/><g id="Layer_2"><g><path class="st0" d="M408.19,256c0-83.92-68.27-152.19-152.19-152.19S103.81,172.08,103.81,256S172.08,408.19,256,408.19    S408.19,339.92,408.19,256z M256,376.19c-66.27,0-120.19-53.92-120.19-120.19S189.73,135.81,256,135.81S376.19,189.73,376.19,256    S322.27,376.19,256,376.19z"/><path class="st0" d="M240,43.5v26.52c0,8.84,7.16,16,16,16s16-7.16,16-16V43.5c0-8.84-7.16-16-16-16S240,34.66,240,43.5z"/><path class="st0" d="M417.57,94.43c-6.25-6.25-16.38-6.25-22.63,0l-18.75,18.75c-6.25,6.25-6.25,16.38,0,22.63    c3.12,3.12,7.22,4.69,11.31,4.69s8.19-1.56,11.31-4.69l18.75-18.75C423.82,110.81,423.82,100.67,417.57,94.43z"/><path class="st0" d="M441.98,272h26.52c8.84,0,16-7.16,16-16s-7.16-16-16-16h-26.52c-8.84,0-16,7.16-16,16S433.14,272,441.98,272z    "/><path class="st0" d="M394.95,417.57c3.12,3.12,7.22,4.69,11.31,4.69s8.19-1.56,11.31-4.69c6.25-6.25,6.25-16.38,0-22.63    l-18.75-18.75c-6.25-6.25-16.38-6.25-22.63,0c-6.25,6.25-6.25,16.38,0,22.63L394.95,417.57z"/><path class="st0" d="M240,441.98v26.52c0,8.84,7.16,16,16,16s16-7.16,16-16v-26.52c0-8.84-7.16-16-16-16S240,433.14,240,441.98z"/><path class="st0" d="M105.74,422.26c4.09,0,8.19-1.56,11.31-4.69l18.75-18.75c6.25-6.25,6.25-16.38,0-22.63    c-6.25-6.25-16.38-6.25-22.63,0l-18.75,18.75c-6.25,6.25-6.25,16.38,0,22.63C97.55,420.7,101.65,422.26,105.74,422.26z"/><path class="st0" d="M43.5,272h26.52c8.84,0,16-7.16,16-16s-7.16-16-16-16H43.5c-8.84,0-16,7.16-16,16S34.66,272,43.5,272z"/><path class="st0" d="M94.43,94.43c-6.25,6.25-6.25,16.38,0,22.63l18.75,18.75c3.12,3.12,7.22,4.69,11.31,4.69    s8.19-1.56,11.31-4.69c6.25-6.25,6.25-16.38,0-22.63l-18.75-18.75C110.81,88.18,100.67,88.18,94.43,94.43z"/></g></g></svg>