<?xml version="1.0" ?><svg style="enable-background:new 0 0 512 512;" version="1.1" viewBox="0 0 512 512" xml:space="preserve" xmlns="http://www.w3.org/2000/svg" xmlns:xlink="http://www.w3.org/1999/xlink"><style type="text/css">
	.st0{fill:#333333;}
</style><g id="Layer_1"/><g id="Layer_2"><g><path class="st0" d="M258.86,459c93.04,0,173.97-62.92,196.79-153c1.63-6.41-0.86-13.17-6.26-16.99    c-5.4-3.82-12.59-3.93-18.1-0.27c-21.18,14.08-45.88,21.52-71.44,21.52c-71.27,0-129.25-57.98-129.25-129.25    c0-38.58,17.05-74.85,46.77-99.52c5.09-4.22,7.05-11.14,4.95-17.41c-2.1-6.27-7.85-10.59-14.45-10.89c-2.97-0.13-6-0.2-9-0.2    c-111.93,0-203,91.07-203,203S146.93,459,258.86,459z M228.27,87.74c-19.15,26.97-29.68,59.41-29.68,93.27    c0,88.92,72.34,161.25,161.25,161.25c17.62,0,34.92-2.84,51.33-8.35C382.48,390.16,324.22,427,258.86,427    c-94.29,0-171-76.71-171-171C87.86,172.15,148.52,102.2,228.27,87.74z"/></g></g></svg>